<?xml version="1.0" standalone="no"?>
<!DOCTYPE svg PUBLIC "-//W3C//DTD SVG 20010904//EN"
 "http://www.w3.org/TR/2001/REC-SVG-20010904/DTD/svg10.dtd">
<svg version="1.0" xmlns="http://www.w3.org/2000/svg"
 width="612.000000pt" height="612.000000pt" viewBox="0 0 612.000000 612.000000"
 preserveAspectRatio="xMidYMid meet">
<metadata>
Created by potrace 1.14, written by Peter Selinger 2001-2017
</metadata>
<g transform="translate(0.000000,612.000000) scale(0.100000,-0.100000)"
fill="#000000" stroke="none">
<path d="M3535 4643 c-33 -9 -65 -35 -81 -64 -19 -37 -18 -114 2 -149 34 -56
112 -77 174 -45 28 14 30 20 30 70 0 48 -2 55 -20 55 -17 0 -20 -7 -20 -44 0
-31 -5 -46 -16 -50 -34 -13 -67 -5 -95 23 -62 62 -25 161 60 161 22 0 43 -4
46 -10 9 -15 32 -12 39 5 10 28 -71 60 -119 48z"/>
<path d="M4765 4643 c-31 -8 -65 -44 -65 -70 0 -42 18 -61 79 -84 65 -23 79
-40 54 -65 -15 -15 -32 -15 -108 -2 -34 6 -30 -28 6 -41 69 -24 130 -7 150 42
20 47 -3 78 -73 100 -60 20 -78 41 -55 65 17 16 50 19 90 9 22 -6 27 -4 27 12
0 12 -11 23 -31 30 -33 11 -41 12 -74 4z"/>
<path d="M980 4503 c0 -75 3 -134 6 -131 3 4 6 50 6 105 0 54 3 102 6 107 2 4
24 -29 48 -74 23 -45 47 -87 52 -92 7 -7 27 24 58 86 l49 97 3 -116 c2 -74 6
-114 13 -110 12 8 11 265 -2 265 -4 0 -32 -46 -60 -101 -52 -101 -52 -101 -69
-79 -10 13 -35 59 -56 102 -21 43 -42 78 -46 78 -4 0 -8 -61 -8 -137z"/>
<path d="M1330 4510 c-29 -72 -50 -133 -48 -136 3 -3 13 13 22 36 l16 40 70 0
70 0 17 -37 c21 -47 22 -47 28 -41 8 7 -99 261 -112 265 -6 2 -34 -55 -63
-127z m94 38 c14 -35 26 -69 26 -75 0 -9 -19 -13 -61 -13 -54 0 -60 2 -55 18
33 88 52 132 57 132 3 0 18 -28 33 -62z"/>
<path d="M1560 4505 l0 -135 60 0 c104 0 160 49 160 140 -1 90 -48 130 -152
130 l-68 0 0 -135z m151 102 c44 -29 61 -63 55 -110 -9 -78 -52 -110 -140
-105 l-51 3 -3 104 c-1 58 0 111 2 118 9 23 98 16 137 -10z"/>
<path d="M1850 4505 l0 -135 80 0 c47 0 80 4 80 10 0 6 -32 10 -75 10 l-75 0
0 55 0 55 65 0 c37 0 65 4 65 10 0 6 -29 10 -66 10 l-65 0 3 53 3 52 75 6 75
5 -82 2 -83 2 0 -135z"/>
<path d="M2170 4504 c0 -87 4 -133 10 -129 6 4 10 60 10 136 0 79 -4 129 -10
129 -6 0 -10 -52 -10 -136z"/>
<path d="M2270 4511 c0 -166 18 -186 22 -25 l3 117 78 -111 c43 -61 82 -114
87 -117 6 -4 10 44 10 129 0 166 -18 185 -22 24 l-3 -113 -78 113 c-43 61 -82
112 -88 112 -5 0 -9 -55 -9 -129z"/>
<path d="M2640 4505 l0 -135 69 0 c37 0 82 5 100 11 52 18 66 68 32 110 -17
21 -18 27 -5 51 17 32 6 71 -25 87 -11 6 -54 11 -95 11 l-76 0 0 -135z m155
60 c0 -29 -2 -30 -52 -33 l-53 -3 0 36 0 36 53 -3 c50 -3 52 -4 52 -33z m-1
-81 c9 -4 16 -18 16 -34 0 -32 -14 -40 -76 -40 l-44 0 0 40 0 40 44 0 c24 0
51 -3 60 -6z"/>
<path d="M2931 4513 c-28 -71 -51 -131 -51 -135 0 -5 8 -8 18 -8 11 0 25 14
35 35 16 33 19 35 66 35 52 0 74 -13 86 -50 6 -20 45 -29 45 -11 0 6 -23 66
-51 135 -44 108 -55 126 -74 126 -19 0 -29 -18 -74 -127z m113 -21 c7 -21 4
-22 -38 -22 -25 0 -46 2 -46 5 0 2 10 30 22 62 l21 58 17 -40 c9 -22 20 -50
24 -63z"/>
<path d="M3170 4505 c0 -127 1 -135 20 -135 17 0 20 8 22 92 l3 92 69 -92 c94
-127 101 -124 101 43 -1 126 -1 130 -22 133 -21 3 -22 -1 -25 -85 l-3 -88 -64
88 c-41 56 -70 87 -82 87 -18 0 -19 -9 -19 -135z"/>
<path d="M3722 4508 l3 -133 83 -3 c76 -3 82 -1 82 17 0 17 -8 20 -61 23 l-60
3 -2 110 c-2 106 -3 110 -25 113 l-23 3 3 -133z"/>
<path d="M3955 4514 c-27 -70 -51 -131 -53 -135 -2 -5 6 -9 18 -9 14 0 25 10
35 33 14 33 16 34 74 36 l60 2 12 -36 c10 -26 19 -35 36 -35 13 0 23 1 23 3 0
1 -24 61 -53 132 -46 112 -57 130 -78 133 -22 2 -28 -7 -74 -124z m98 19 c9
-27 17 -51 17 -55 0 -5 -18 -8 -40 -8 -25 0 -40 5 -40 12 0 19 32 98 39 98 4
0 15 -21 24 -47z"/>
<path d="M4192 4508 l3 -133 55 -3 c111 -6 180 44 180 130 0 96 -51 138 -169
138 l-72 0 3 -132z m161 72 c34 -27 44 -78 22 -119 -18 -35 -49 -51 -101 -51
l-34 0 0 95 0 95 44 0 c28 0 52 -7 69 -20z"/>
<path d="M4480 4505 l0 -135 90 0 c83 0 90 2 90 20 0 17 -8 19 -67 22 -65 3
-68 4 -69 28 -2 44 5 50 62 50 47 0 54 3 54 20 0 16 -8 19 -57 22 -57 3 -58 3
-58 33 l0 30 68 3 c59 3 67 5 67 22 0 18 -7 20 -90 20 l-90 0 0 -135z"/>
<path d="M4939 4638 c0 -2 -1 -61 -2 -133 -2 -128 -2 -130 21 -133 21 -3 22 0
22 57 l0 61 65 0 65 0 0 -60 c0 -53 2 -60 20 -60 19 0 20 7 20 135 0 128 -1
135 -20 135 -18 0 -20 -7 -20 -55 l0 -55 -65 0 -65 0 0 55 c0 48 -2 55 -20 55
-11 0 -20 -1 -21 -2z"/>
<path d="M1341 3852 l-163 -187 166 -3 166 -2 1 -850 c1 -468 3 -854 4 -860 1
-5 3 -14 4 -19 0 -5 13 -12 29 -15 23 -6 656 -213 1304 -426 l208 -68 207 74
c115 41 327 118 473 170 146 52 389 139 540 193 151 55 285 102 298 106 l22 6
0 717 c0 394 3 774 7 844 l6 128 165 2 165 3 -164 187 -164 187 -1555 0 -1555
0 -164 -187z"/>
</g>
</svg>
